<svg id="Composant_26_1" data-name="Composant 26 – 1" xmlns="http://www.w3.org/2000/svg" width="330.048" height="259.976" viewBox="0 0 330.048 259.976">
  <path id="Tracé_3975" data-name="Tracé 3975" d="M438.527,436.741c-2.634-14.1,1.513-30.136,13.04-38.67A66.078,66.078,0,0,0,465.342,441.3c3.7,4.742,8.309,9.632,8.166,15.645-.089,3.742-2.112,7.227-4.779,9.853a43.872,43.872,0,0,1-9.2,6.383l-.505.786C449.512,463.232,441.161,450.839,438.527,436.741Z" transform="translate(-359.289 -295.786)" fill="#f0f0f0"/>
  <path id="Tracé_3976" data-name="Tracé 3976" d="M459.172,398.049a56.479,56.479,0,0,0-3.729,34.549,24.321,24.321,0,0,0,2.575,7.172,13.95,13.95,0,0,0,5.27,5.112c2.012,1.162,4.2,2.118,5.9,3.749a8.542,8.542,0,0,1,2.514,6.517,22.192,22.192,0,0,1-2.459,8.482c-1.358,2.987-2.817,6.069-2.729,9.428.011.407-.621.4-.632-.007-.153-5.844,4.071-10.537,5.013-16.144a8.65,8.65,0,0,0-1.747-7.409c-1.609-1.773-3.868-2.761-5.915-3.92a14.885,14.885,0,0,1-5.339-4.806,22.484,22.484,0,0,1-2.842-7.047,54.794,54.794,0,0,1-1.242-17.081,57.481,57.481,0,0,1,4.82-18.919c.166-.37.707-.043.542.325Z" transform="translate(-366.684 -295.548)" fill="#fff"/>
  <path id="Tracé_3977" data-name="Tracé 3977" d="M447.43,450.283a8.474,8.474,0,0,1-8.84-6.5c-.092-.4.519-.558.611-.162a7.846,7.846,0,0,0,8.236,6.029c.406-.03.4.6-.007.632Z" transform="translate(-359.67 -316.93)" fill="#fff"/>
  <path id="Tracé_3978" data-name="Tracé 3978" d="M469.617,475.372a16.332,16.332,0,0,0,4.094-11.176c-.009-.407.623-.4.632.007a16.988,16.988,0,0,1-4.283,11.621c-.271.3-.712-.149-.442-.452Z" transform="translate(-374.11 -326.494)" fill="#fff"/>
  <path id="Tracé_3979" data-name="Tracé 3979" d="M456.056,420.328a4.8,4.8,0,0,0,4.261-1.6c.267-.308.707.146.442.452a5.375,5.375,0,0,1-4.71,1.78.327.327,0,0,1-.313-.319.318.318,0,0,1,.319-.313Z" transform="translate(-367.673 -305.375)" fill="#fff"/>
  <path id="Tracé_3980" data-name="Tracé 3980" d="M516.871,419.93c-.161.2-.322.394-.482.6a63.154,63.154,0,0,0-5.781,8.46c-.135.228-.268.46-.4.692a66.592,66.592,0,0,0-7.77,23.253,64.664,64.664,0,0,0-.593,9.808c.071,4.529.509,9.435-.88,13.6a11.087,11.087,0,0,1-.5,1.279l-22.279,7.1c-.059-.009-.116-.013-.175-.023l-.877.324c-.014-.169-.026-.344-.04-.513-.009-.1-.013-.2-.021-.3,0-.066-.008-.132-.016-.191,0-.022,0-.044,0-.061-.008-.059-.008-.115-.014-.169-.066-.981-.128-1.964-.178-2.95,0-.005,0-.005,0-.012a95.086,95.086,0,0,1,1.247-22.446c.042-.22.082-.446.134-.67a61.707,61.707,0,0,1,2.729-9.693,54.55,54.55,0,0,1,2.2-5.062,45.365,45.365,0,0,1,8.235-11.548c6.646-6.765,15.382-11.329,24.743-11.472C516.4,419.93,516.63,419.928,516.871,419.93Z" transform="translate(-377.456 -305.983)" fill="#f0f0f0"/>
  <path id="Tracé_3981" data-name="Tracé 3981" d="M517.213,419.943a56.479,56.479,0,0,0-23.778,25.34,24.32,24.32,0,0,0-2.262,7.277,13.95,13.95,0,0,0,1.13,7.254c.906,2.139,2.081,4.222,2.452,6.544a8.541,8.541,0,0,1-1.916,6.717,22.193,22.193,0,0,1-7.07,5.292c-2.883,1.567-5.9,3.15-7.855,5.885-.237.331-.737-.055-.5-.386,3.4-4.758,9.595-5.962,13.722-9.872a8.65,8.65,0,0,0,3.066-6.967c-.217-2.384-1.426-4.534-2.362-6.692a14.885,14.885,0,0,1-1.369-7.052,22.484,22.484,0,0,1,1.974-7.337,54.792,54.792,0,0,1,9.292-14.386,57.48,57.48,0,0,1,15.239-12.2c.355-.2.591.391.238.586Z" transform="translate(-377.758 -305.698)" fill="#fff"/>
  <path id="Tracé_3982" data-name="Tracé 3982" d="M506.8,451.975a8.474,8.474,0,0,1-3.145-10.512c.165-.372.75-.133.585.239a7.846,7.846,0,0,0,2.946,9.772c.342.22-.046.719-.386.5Z" transform="translate(-389.695 -315.942)" fill="#fff"/>
  <path id="Tracé_3983" data-name="Tracé 3983" d="M504.021,487.551a16.332,16.332,0,0,0,10-6.459c.238-.331.738.056.5.386a16.988,16.988,0,0,1-10.417,6.7c-.4.08-.479-.547-.081-.627Z" transform="translate(-390.078 -334.458)" fill="#fff"/>
  <path id="Tracé_3984" data-name="Tracé 3984" d="M531.432,434.436a4.8,4.8,0,0,0,4.365,1.288c.4-.085.477.542.081.627a5.375,5.375,0,0,1-4.832-1.414.327.327,0,0,1-.057-.443A.318.318,0,0,1,531.432,434.436Z" transform="translate(-402.752 -312.721)" fill="#fff"/>
  <path id="Tracé_3985" data-name="Tracé 3985" d="M606.578,271.114a6.409,6.409,0,0,1,.146,1l26.121,15.069,6.349-3.655,6.769,8.861-10.611,7.563a4.864,4.864,0,0,1-5.836-.142l-26.935-21.25a6.383,6.383,0,1,1,4-7.444Z" transform="translate(-432.168 -234.259)" fill="#ffb6b6"/>
  <path id="Tracé_3986" data-name="Tracé 3986" d="M667.457,293.725a2.733,2.733,0,0,1,1.365-1.825l12.06-6.571a7.6,7.6,0,1,1,9.187,12.107l-9.665,9.819a2.736,2.736,0,0,1-4.134-.272l-8.322-11.034a2.733,2.733,0,0,1-.49-2.226Z" transform="translate(-466.418 -242.468)" fill="#3f3d56"/>
  <path id="Tracé_3987" data-name="Tracé 3987" d="M707.259,219.395c1.735-5.53,5.681-10.6,11.138-12.471s13.448.978,17.551,5.067c7.5,7.479,9.336,33.173,4.18,41.292-1.026-.054-4.564-.094-5.6-.133l-1.468-4.894V253.1c-8.1-.25-16.536-.094-24.975.069C707.325,247.421,705.524,224.925,707.259,219.395Z" transform="translate(-484.674 -206.338)" fill="#2f2e41"/>
  <path id="Tracé_3988" data-name="Tracé 3988" d="M403.347,434.648h-7.389l-3.515-28.5h10.906Z" transform="translate(-183.085 -189.477)" fill="#ffb6b6"/>
  <path id="Tracé_3989" data-name="Tracé 3989" d="M518.622,426.841l-7.15,1.863-10.591-26.693,10.553-2.75Z" transform="translate(-233.674 -186.265)" fill="#ffb6b6"/>
  <path id="Tracé_3990" data-name="Tracé 3990" d="M430.321,128.5,432,132.857l-.335,4.353-32.768,11.35,1.626-19.051,3.683-4.354Z" transform="translate(-186.093 -58.388)" fill="#ffb6b6"/>
  <circle id="Ellipse_12" data-name="Ellipse 12" cx="11.704" cy="11.704" r="11.704" transform="translate(222.163 7.534)" fill="#ffb7b7"/>
  <path id="Tracé_3991" data-name="Tracé 3991" d="M707.814,211.952a14.7,14.7,0,0,1,22.349,12.829c-6.38,1.631-13.178,2.313-20.383.393l-1.647-4.031-.971,4.034a4.952,4.952,0,0,1-6.382-.008A15.01,15.01,0,0,1,707.814,211.952Z" transform="translate(-481.989 -207.955)" fill="#2f2e41"/>
  <path id="Tracé_3992" data-name="Tracé 3992" d="M687.346,676.144H682.1l-.936-4.95-2.4,4.95H664.863a3.126,3.126,0,0,1-1.776-5.7l11.105-7.67v-5l11.681.7Z" transform="translate(-463.778 -416.943)" fill="#2f2e41"/>
  <path id="Tracé_3993" data-name="Tracé 3993" d="M816.195,666.235l-5.074,1.323L808.967,663,807.9,668.4l-13.457,3.508a3.126,3.126,0,0,1-3.156-5.066l8.812-10.223-1.262-4.843,11.479-2.272Z" transform="translate(-523.86 -413.085)" fill="#2f2e41"/>
  <path id="Tracé_3994" data-name="Tracé 3994" d="M755.06,507.774,733.4,463.257l-6.8-54.183c4.688-8.706-4.018-26.422-4.018-26.422v-7.438l-33.727,6.363h0a161.89,161.89,0,0,0-9.865,58.782l1.359,72.024h-.426a2.667,2.667,0,0,0,0,5.335H693.26a2.667,2.667,0,0,0,0-5.335h-.344l9.574-91.628,11.133,45.216,26.9,41.632a2.661,2.661,0,0,0,.213,5.313h13.337a2.665,2.665,0,0,0,.984-5.142Z" transform="translate(-471.018 -285.122)" fill="#2f2e41"/>
  <path id="Tracé_3995" data-name="Tracé 3995" d="M728.524,340.594h0A2.127,2.127,0,0,0,726.6,339c-.445-5.083-3.382-37.679-3.494-38.635l0-.04-.851-18.169a2.687,2.687,0,0,0-2.509-2.556l-4.492-.294a.238.238,0,0,1-.23-.238,3.778,3.778,0,0,0-3.778-3.778h-13.3a3.537,3.537,0,0,0-3.508,3.1.235.235,0,0,1-.239.211h0a6.319,6.319,0,0,0-6.357,5.241c-1.818,10.579-5.462,34.59-3.661,47.939.627,4.647.342,11.636.1,15.524a2.862,2.862,0,0,0,.713,2.075,2.13,2.13,0,0,0-1.476,2.565h0a2.134,2.134,0,0,0,2.591,1.548l40.866-10.3a2.134,2.134,0,0,0,1.548-2.591Z" transform="translate(-473.91 -238.504)" fill="#3f3d56"/>
  <path id="Tracé_3996" data-name="Tracé 3996" d="M530.03,526.093a5.049,5.049,0,0,0-4.239-4.951l-72.454-11.9a5.048,5.048,0,0,0-2.088.093l-16.98,4.391-9.743,2.522-17.98,4.648a5.065,5.065,0,0,0-3.792,4.9v75.921a5.087,5.087,0,0,0,4.007,4.947l73.8-.836a4.921,4.921,0,0,0,1.054.109,5.052,5.052,0,0,0,1.523-.232l43.846,1.091a5.04,5.04,0,0,0,3.539-4.867Z" transform="translate(-342.957 -347.619)" fill="#fff"/>
  <path id="Tracé_3997" data-name="Tracé 3997" d="M530.03,526.093a5.049,5.049,0,0,0-4.239-4.951l-72.454-11.9a5.048,5.048,0,0,0-2.088.093l-16.98,4.391-9.743,2.522-17.98,4.648a5.065,5.065,0,0,0-3.792,4.9v75.921a5.087,5.087,0,0,0,4.007,4.947l73.8-.836a4.921,4.921,0,0,0,1.054.109,5.052,5.052,0,0,0,1.523-.232l43.846,1.091a5.04,5.04,0,0,0,3.539-4.867Zm-3.425,79.5-43.846,1.043a3.849,3.849,0,0,1-1.932.093l-73.8-1.3a3.816,3.816,0,0,1-3-3.711V525.8a3.8,3.8,0,0,1,2.488-3.564,3.152,3.152,0,0,1,.354-.11l19.021-4.918,11.248-2.91,14.433-3.733a3.618,3.618,0,0,1,.949-.122,3.757,3.757,0,0,1,.616.051l72.454,11.9a3.777,3.777,0,0,1,3.18,3.711l.493,75.839a3.782,3.782,0,0,1-2.653,3.652Z" transform="translate(-342.957 -347.619)" fill="#ccc"/>
  <path id="Tracé_3998" data-name="Tracé 3998" d="M529.632,535.552a.549.549,0,0,1-.16.072l-21.311,5.761-6.634,1.792-18.869,5.1a.733.733,0,0,1-.165.021,1.029,1.029,0,0,1-.114-.008l-76.085-13.872-.253-.046a.634.634,0,1,1,.228-1.248l1.531.278,74.668,13.614,16.263-4.395,9.1-2.459,20.982-5.673.333-.089a.636.636,0,0,1,.738.346.492.492,0,0,1,.038.1A.634.634,0,0,1,529.632,535.552Z" transform="translate(-344.246 -358.786)" fill="#ccc"/>
  <path id="Tracé_3999" data-name="Tracé 3999" d="M549.884,629.428c-.347,0-.629-.279-.633,1.507l-.633-68.957c0-2.483.278-2.769.627-2.772h.006c.347,0,.629.279.633,2.761l.633,68.957c0-1.785-.278-1.5-.627-1.5Z" transform="translate(-411.005 -370.959)" fill="#ccc"/>
  <path id="Tracé_4000" data-name="Tracé 4000" d="M526.089,610.868l-6.814.072-2.8-75.506-71.349-14.2a1.646,1.646,0,0,1-.207-.051,2.515,2.515,0,0,1-1.358-.957l9.743-2.522,2.864.569,67.7,13.467a2.517,2.517,0,0,1,1.7,1.232C525.787,533.342,526.085,610.43,526.089,610.868Z" transform="translate(-361.996 -351.599)" fill="#ccc"/>
  <path id="Tracé_4001" data-name="Tracé 4001" d="M616.676,270.677a3.805,3.805,0,0,0-3.195-3.732l-54.6-8.967a3.8,3.8,0,0,0-1.573.07l-12.8,3.309-7.342,1.9-13.55,3.5a3.817,3.817,0,0,0-2.858,3.694v44.754a3.834,3.834,0,0,0,3.02,3.728l55.619,11.834a3.705,3.705,0,0,0,.795.083,3.807,3.807,0,0,0,1.147-.175l33.045-10.435a3.8,3.8,0,0,0,2.667-3.668Z" transform="translate(-398.007 -230.406)" fill="#fff"/>
  <path id="Tracé_4002" data-name="Tracé 4002" d="M561.177,264.184a.462.462,0,0,0-.118.015l-33.69,8.713a.476.476,0,0,0-.357.461v44.754a.479.479,0,0,0,.377.466l55.619,11.834a.48.48,0,0,0,.243-.012L616.3,319.98a.473.473,0,0,0,.332-.458l-.37-45.9a.475.475,0,0,0-.4-.466l-54.6-8.966A.492.492,0,0,0,561.177,264.184Z" transform="translate(-400.925 -233.325)" fill="#225ea8"/>
  <path id="Tracé_4003" data-name="Tracé 4003" d="M616.676,270.677a3.805,3.805,0,0,0-3.195-3.732l-54.6-8.967a3.8,3.8,0,0,0-1.573.07l-12.8,3.309-7.342,1.9-13.55,3.5a3.817,3.817,0,0,0-2.858,3.694v44.754a3.834,3.834,0,0,0,3.02,3.728l55.619,11.834a3.705,3.705,0,0,0,.795.083,3.807,3.807,0,0,0,1.147-.175l33.045-10.435a3.8,3.8,0,0,0,2.667-3.668ZM614.1,319.335l-33.045,10.435a2.9,2.9,0,0,1-1.456.07l-55.622-11.834a2.876,2.876,0,0,1-2.263-2.8V270.455a2.864,2.864,0,0,1,1.875-2.686,2.39,2.39,0,0,1,.267-.083l14.335-3.706,8.477-2.193,10.877-2.813a2.727,2.727,0,0,1,.715-.092,2.83,2.83,0,0,1,.464.038l54.6,8.967a2.847,2.847,0,0,1,2.4,2.8l.372,45.9a2.851,2.851,0,0,1-2,2.753Z" transform="translate(-398.007 -230.406)" fill="#3f3d56"/>
  <path id="Tracé_4004" data-name="Tracé 4004" d="M616.376,277.806a.414.414,0,0,1-.121.054L600.194,282.2l-5,1.351L580.973,287.4a.553.553,0,0,1-.124.016.77.77,0,0,1-.086-.006l-57.342-10.454-.191-.035a.478.478,0,0,1,.172-.941l1.154.21,56.274,10.261,12.257-3.312,6.856-1.853,15.813-4.275.251-.067a.479.479,0,0,1,.556.261.374.374,0,0,1,.029.076A.478.478,0,0,1,616.376,277.806Z" transform="translate(-398.978 -238.822)" fill="#3f3d56"/>
  <path id="Tracé_4005" data-name="Tracé 4005" d="M631.64,348.556a.477.477,0,0,1-.477-.472l-.477-51.97a.477.477,0,0,1,.472-.481h0a.477.477,0,0,1,.477.472l.477,51.97a.477.477,0,0,1-.472.481Z" transform="translate(-449.292 -247.996)" fill="#3f3d56"/>
  <path id="Tracé_4006" data-name="Tracé 4006" d="M613.571,327.643l-5,1.351-2.107-51.277-53.772-10.7a1.233,1.233,0,0,1-.156-.038,1.9,1.9,0,0,1-1.024-.722l7.343-1.9,2.158.429,51.023,10.149a1.9,1.9,0,0,1,1.284.928C613.479,276.14,613.568,327.313,613.571,327.643Z" transform="translate(-412.355 -233.405)" fill="#3f3d56"/>
  <path id="Tracé_4007" data-name="Tracé 4007" d="M654.461,319.87a6.407,6.407,0,0,1,.712.713l29.953-3.5,2.913-6.722,10.719,3.07-4,12.4a4.865,4.865,0,0,1-4.768,3.369l-34.294-.975a6.383,6.383,0,1,1-1.234-8.359Z" transform="translate(-455.485 -254.868)" fill="#ffb6b6"/>
  <path id="Tracé_4008" data-name="Tracé 4008" d="M719.593,302.361a2.733,2.733,0,0,1,.006-2.278l5.755-12.47a7.6,7.6,0,1,1,14.6,4.232l-1.9,13.647a2.736,2.736,0,0,1-3.48,2.249l-13.262-3.887A2.733,2.733,0,0,1,719.593,302.361Z" transform="translate(-490.655 -241.695)" fill="#3f3d56"/>
  <path id="Tracé_4009" data-name="Tracé 4009" d="M620.075,692.268H291.3a.635.635,0,1,1,0-1.27H620.075a.635.635,0,1,1,0,1.27Z" transform="translate(-290.662 -432.443)" fill="#cacaca"/>
  <circle id="Ellipse_13" data-name="Ellipse 13" cx="19.104" cy="19.104" r="19.104" transform="translate(44.973 154.122)" fill="#f49f27"/>
  <path id="Tracé_4010" data-name="Tracé 4010" d="M399.473,532.3a2.124,2.124,0,0,1-1.7-.85l-5.212-6.949a2.125,2.125,0,0,1,3.4-2.55l3.41,4.546,8.758-13.136a2.125,2.125,0,0,1,3.536,2.358l-10.424,15.636a2.126,2.126,0,0,1-1.709.946Z" transform="translate(-338.003 -349.129)" fill="#fff"/>
  <path id="Tracé_4011" data-name="Tracé 4011" d="M548.094,336.172a.807.807,0,0,1-.177-.02l-16.538-3.734a.8.8,0,0,1,.352-1.561l16.538,3.734a.8.8,0,0,1-.176,1.581Z" transform="translate(-402.672 -264.42)" fill="#fff"/>
  <path id="Tracé_4012" data-name="Tracé 4012" d="M428.283,620.939a.809.809,0,0,1-.177.017l-16.952-.285a.8.8,0,0,1,.027-1.6l16.952.285a.8.8,0,0,1,.15,1.584Z" transform="translate(-346.508 -398.888)" fill="#e6e6e6"/>
  <path id="Tracé_4013" data-name="Tracé 4013" d="M439.283,637.939a.809.809,0,0,1-.177.017l-16.952-.285a.8.8,0,1,1,.027-1.6l16.952.285a.8.8,0,0,1,.15,1.584Z" transform="translate(-351.64 -406.818)" fill="#e6e6e6"/>
</svg>
