<svg id="Composant_25_1" data-name="Composant 25 – 1" xmlns="http://www.w3.org/2000/svg" width="233.9" height="234.6" viewBox="0 0 233.9 234.6">
  <path id="Path_1" data-name="Path 1" d="M250.069,674.208l-2.06-8.124a105.478,105.478,0,0,0-11.193-4.016l-.26,3.776-1.054-4.16c-4.717-1.348-7.926-1.942-7.926-1.942S231.91,676.225,241,688.826l10.593,1.861-8.23,1.187a42.684,42.684,0,0,0,3.68,3.9c13.225,12.276,27.956,17.908,32.9,12.58s-1.766-19.6-14.992-31.873a56.205,56.205,0,0,0-14.406-9.264Z" transform="translate(-227.576 -476.579)" fill="#f2f2f2"/>
  <path id="Path_2" data-name="Path 2" d="M327.663,625.26l2.436-8.02a105.5,105.5,0,0,0-7.505-9.223l-2.174,3.1,1.247-4.106c-3.342-3.591-5.782-5.758-5.782-5.758s-4.809,16.35-3.541,31.837l8.107,7.069-7.66-3.238a42.68,42.68,0,0,0,1.135,5.242c4.976,17.345,14.675,29.78,21.662,27.776s8.619-17.691,3.643-35.035a56.2,56.2,0,0,0-7.544-15.376Z" transform="translate(-285.579 -436.455)" fill="#f2f2f2"/>
  <path id="Path_22" data-name="Path 22" d="M492.579,132.038h-1.285v-35.2A20.375,20.375,0,0,0,470.92,76.462H396.337a20.375,20.375,0,0,0-20.375,20.375V289.961a20.375,20.375,0,0,0,20.375,20.375H470.92a20.375,20.375,0,0,0,20.374-20.374V157.1h1.285Z" transform="translate(-329.365 -76.462)" fill="#e6e6e6"/>
  <path id="Path_23" data-name="Path 23" d="M484.023,93.335h-9.735a7.229,7.229,0,0,1-6.694,9.959H424.867a7.229,7.229,0,0,1-6.693-9.959h-9.093a15.216,15.216,0,0,0-15.216,15.216V301.4a15.216,15.216,0,0,0,15.216,15.216h74.942A15.216,15.216,0,0,0,499.238,301.4h0V108.551a15.216,15.216,0,0,0-15.215-15.215Z" transform="translate(-341.646 -88.037)" fill="#fff"/>
  <path id="Path_6" data-name="Path 6" d="M514.466,321.189a7.674,7.674,0,0,1,3.842-6.65,7.678,7.678,0,1,0,0,13.3,7.673,7.673,0,0,1-3.84-6.648Z" transform="translate(-419.11 -239.071)" fill="#ccc"/>
  <path id="Path_7" data-name="Path 7" d="M545.2,321.189a7.674,7.674,0,0,1,3.842-6.65,7.678,7.678,0,1,0,0,13.3,7.673,7.673,0,0,1-3.841-6.648Z" transform="translate(-440.195 -239.071)" fill="#ccc"/>
  <circle id="Ellipse_1" data-name="Ellipse 1" cx="7.678" cy="7.678" r="7.678" transform="translate(106.763 74.44)" fill="#f49f27"/>
  <path id="Path_8" data-name="Path 8" d="M531.61,309.559H486.862a1.609,1.609,0,0,1-1.607-1.607V263.2a1.609,1.609,0,0,1,1.607-1.607H531.61a1.609,1.609,0,0,1,1.607,1.607v44.748a1.609,1.609,0,0,1-1.607,1.607ZM486.862,262.24a.965.965,0,0,0-.964.964v44.748a.965.965,0,0,0,.964.964H531.61a.965.965,0,0,0,.964-.964V263.2a.965.965,0,0,0-.964-.964Z" transform="translate(-404.338 -203.46)" fill="#ccc"/>
  <rect id="Rectangle_1" data-name="Rectangle 1" width="68.631" height="0.643" transform="translate(68.634 140.401)" fill="#ccc"/>
  <circle id="Ellipse_2" data-name="Ellipse 2" cx="2.167" cy="2.167" r="2.167" transform="translate(68.634 132.053)" fill="#225ea8"/>
  <rect id="Rectangle_2" data-name="Rectangle 2" width="68.631" height="0.643" transform="translate(68.634 162.073)" fill="#ccc"/>
  <circle id="Ellipse_3" data-name="Ellipse 3" cx="2.167" cy="2.167" r="2.167" transform="translate(68.634 153.726)" fill="#225ea8"/>
  <path id="Tracé_3876" data-name="Tracé 3876" d="M610.224,648.392H588.535a1.415,1.415,0,0,1-1.413-1.413v-7.6a1.415,1.415,0,0,1,1.413-1.413h21.689a1.415,1.415,0,0,1,1.413,1.413v7.6a1.415,1.415,0,0,1-1.413,1.413Z" transform="translate(-474.216 -461.639)" fill="#f49f27"/>
  <circle id="Ellipse_7" data-name="Ellipse 7" cx="2.167" cy="2.167" r="2.167" transform="translate(75.704 132.053)" fill="#225ea8"/>
  <circle id="Ellipse_8" data-name="Ellipse 8" cx="2.167" cy="2.167" r="2.167" transform="translate(82.774 132.053)" fill="#225ea8"/>
  <circle id="Ellipse_9" data-name="Ellipse 9" cx="2.167" cy="2.167" r="2.167" transform="translate(75.704 153.726)" fill="#225ea8"/>
  <circle id="Ellipse_10" data-name="Ellipse 10" cx="2.167" cy="2.167" r="2.167" transform="translate(82.774 153.726)" fill="#225ea8"/>
  <path id="Path_88" data-name="Path 88" d="M475.212,821.867H249.748c-.483,0-.874-.171-.874-.382s.391-.383.874-.383H475.212c.482,0,.874.171.874.383S475.695,821.867,475.212,821.867Z" transform="translate(-242.186 -587.267)" fill="#3f3d56"/>
  <path id="Tracé_3877" data-name="Tracé 3877" d="M782.357,545.151a3.173,3.173,0,0,1,.443.247l14.085-6.011.5-3.71,5.628-.034-.332,8.509-18.59,4.916a3.329,3.329,0,0,1-.141.38,3.214,3.214,0,1,1-1.6-4.3Z" transform="translate(-605.036 -391.449)" fill="#ffb8b8"/>
  <path id="Tracé_3878" data-name="Tracé 3878" d="M624.569,702.583h-3.85l-1.831-14.85h5.682Z" transform="translate(-424.543 -471.769)" fill="#ffb8b8"/>
  <path id="Tracé_3879" data-name="Tracé 3879" d="M605.751,731.518h7.425v4.675h-12.1A4.675,4.675,0,0,1,605.751,731.518Z" transform="translate(-412.324 -501.804)" fill="#2f2e41"/>
  <path id="Tracé_3880" data-name="Tracé 3880" d="M669.128,699.275l-3.831.377-3.279-14.6,5.655-.557Z" transform="translate(-454.129 -469.549)" fill="#ffb8b8"/>
  <path id="Tracé_3881" data-name="Tracé 3881" d="M4.675,0H12.1V4.675H0A4.675,4.675,0,0,1,4.675,0Z" transform="translate(203.67 229.736) rotate(-5.625)" fill="#2f2e41"/>
  <circle id="Ellipse_5" data-name="Ellipse 5" cx="7.713" cy="7.713" r="7.713" transform="translate(193.386 113.052)" fill="#ffb8b8"/>
  <path id="Tracé_3882" data-name="Tracé 3882" d="M827.6,683.35a1.4,1.4,0,0,1-1.386-1.161c-1.993-11.062-8.506-47.231-8.662-48.233a.428.428,0,0,1,0-.07v-2.7a.467.467,0,0,1,.088-.274l.861-1.205a.464.464,0,0,1,.359-.2c4.906-.23,20.972-.9,21.748.066h0c.78.974.5,3.927.441,4.51l0,.061,7.218,46.16a1.417,1.417,0,0,1-1.166,1.612l-4.508.743a1.42,1.42,0,0,1-1.578-.971c-1.394-4.456-6.07-19.444-7.69-25.243a.157.157,0,0,0-.308.044c.081,5.529.277,19.634.344,24.506l.007.525a1.419,1.419,0,0,1-1.285,1.425l-4.347.395C827.683,683.348,827.639,683.35,827.6,683.35Z" transform="translate(-632.279 -455.539)" fill="#2f2e41"/>
  <path id="Path_99" data-name="Path 99" d="M829.046,493.686a6.448,6.448,0,0,0-2.614,3.767,35.7,35.7,0,0,0-1.534,8.529l-.488,8.667-6.047,22.977c5.241,4.434,8.264,3.426,15.318-.2s7.861,1.209,7.861,1.209l1.411-19.551,2.016-21.364a9.479,9.479,0,0,0-1.527-1.468,15.594,15.594,0,0,0-13.328-2.825Z" transform="translate(-632.842 -362.176)" fill="#225ea8"/>
  <path id="Tracé_3883" data-name="Tracé 3883" d="M836.438,556.842a3.306,3.306,0,0,1,.471.221l13.927-6.97.231-3.776,5.745-.4.308,8.608-18.611,6.155a3.3,3.3,0,1,1-2.07-3.841Z" transform="translate(-642.198 -398.499)" fill="#ffb8b8"/>
  <path id="Path_101" data-name="Path 101" d="M886.675,507.5c3.426,1.209,4.03,14.311,4.03,14.311-4.031-2.217-8.868,1.411-8.868,1.411s-1.008-3.427-2.217-7.861a7.7,7.7,0,0,1,1.612-7.256A5.488,5.488,0,0,1,886.675,507.5Z" transform="translate(-674.649 -371.861)" fill="#225ea8"/>
  <path id="Path_102" data-name="Path 102" d="M858.042,439.557c-.961-.769-2.272.629-2.272.629L855,433.267a27.471,27.471,0,0,1-7.88-.192c-3.075-.768-3.556,2.787-3.556,2.787a24.662,24.662,0,0,1-.1-4.324c.192-1.73,2.691-3.46,7.111-4.613s6.727,3.844,6.727,3.844C860.383,432.306,859,440.326,858.042,439.557Z" transform="translate(-650.028 -316.752)" fill="#2f2e41"/>
</svg>
