<svg id="Composant_38_1" data-name="Composant 38 – 1" xmlns="http://www.w3.org/2000/svg" width="380" height="177.26" viewBox="0 0 380 177.26">
  <g id="Groupe_37296" data-name="Groupe 37296" transform="translate(121.539 25.491)">
    <path id="Tracé_41505" data-name="Tracé 41505" d="M842.085,572.507h0a60.306,60.306,0,0,1-.506-13.072l.506-7.22h0C839.3,557.763,839.927,565.065,842.085,572.507Z" transform="translate(-664.9 -451.648)" fill="#cacaca"/>
    <path id="Tracé_41506" data-name="Tracé 41506" d="M854.118,603.294h0a44.322,44.322,0,0,1-.243-7.781l.243-4.3h0C852.777,594.517,853.08,598.864,854.118,603.294Z" transform="translate(-674.759 -481.227)" fill="#cacaca"/>
    <path id="Tracé_41507" data-name="Tracé 41507" d="M831.711,660.942v2.416a.729.729,0,0,1-.725.725h-1.208a.241.241,0,0,0-.242.242v19.809a.728.728,0,0,1-.725.725H814.076a.725.725,0,0,1-.725-.725V664.324a.242.242,0,0,0-.242-.242h-1.449a.725.725,0,0,1-.725-.725v-2.416a.724.724,0,0,1,.725-.725h19.326A.727.727,0,0,1,831.711,660.942Z" transform="translate(-642.688 -533.56)" fill="#f2f2f2"/>
    <rect id="Rectangle_17340" data-name="Rectangle 17340" width="16.186" height="0.725" transform="translate(170.685 131.03)" fill="#e6e6e6"/>
    <path id="Tracé_41508" data-name="Tracé 41508" d="M836.363,702.218a20.8,20.8,0,0,1-16.427,0v-5.106a25.8,25.8,0,0,1,16.427,0Z" transform="translate(-649.514 -560.524)" fill="#e6e6e6"/>
    <circle id="Ellipse_192" data-name="Ellipse 192" cx="8.792" cy="8.792" r="8.792" transform="translate(100.274 42.875)" fill="#2f2e41"/>
    <path id="Tracé_41509" data-name="Tracé 41509" d="M554.545,310.278a8.794,8.794,0,0,1,7.74,12.965,8.79,8.79,0,1,0-14.6-9.659A8.771,8.771,0,0,1,554.545,310.278Z" transform="translate(-443.028 -267.161)" fill="#2f2e41"/>
    <circle id="Ellipse_193" data-name="Ellipse 193" cx="25.827" cy="25.827" r="25.827" transform="translate(66.81 -0.006)" fill="#2f2e41"/>
    <path id="Tracé_41510" data-name="Tracé 41510" d="M389.442,145.606a25.823,25.823,0,0,1,35.794-2.708c-.211-.2-.42-.4-.64-.6a25.827,25.827,0,1,0-34.32,38.605c.219.2.445.379.669.565A25.823,25.823,0,0,1,389.442,145.606Z" transform="translate(-317.075 -135.809)" fill="#2f2e41"/>
    <circle id="Ellipse_194" data-name="Ellipse 194" cx="16.635" cy="16.635" r="16.635" transform="translate(75.784 18.161)" fill="#ffb8b8"/>
    <path id="Tracé_41511" data-name="Tracé 41511" d="M374.769,367.5l-17.8.8s1.486,9.206-8.145,10.081-18.386-1.751-21.888,4.815-1.993,29.947-1.993,29.947,6.566,23.639,11.819,27.141,51.217-1.313,51.217-1.313l19.236-24.289-.652-18.732a16.061,16.061,0,0,0-18.89-15.315q-.283.053-.571.115a59.169,59.169,0,0,0-7.911-4.478C375.647,374.5,374.769,367.5,374.769,367.5Z" transform="translate(-273.853 -311.559)" fill="#cacaca"/>
    <path id="Tracé_41512" data-name="Tracé 41512" d="M372.26,407.073a31.19,31.19,0,0,1,2.48,18.621c-1.751,10.944,5.6,34.09,5.6,34.09l5.253-1.313s-3.5-22.763-2.627-28.016,1.117-20.754-3.26-23.381S372.26,407.073,372.26,407.073Z" transform="translate(-309.986 -340.683)" fill="#2f2e41"/>
    <path id="Tracé_41513" data-name="Tracé 41513" d="M581.989,419.451l1.84,48.466,3.5,2.189s5.034-53.187,2.408-53.187h-5.344a2.409,2.409,0,0,0-2.409,2.409Q581.986,419.389,581.989,419.451Z" transform="translate(-469.046 -349.036)" fill="#2f2e41"/>
    <circle id="Ellipse_195" data-name="Ellipse 195" cx="2.189" cy="2.189" r="2.189" transform="translate(70.569 113.628)" fill="#6c63ff"/>
    <circle id="Ellipse_196" data-name="Ellipse 196" cx="2.189" cy="2.189" r="2.189" transform="translate(114.345 115.817)" fill="#6c63ff"/>
    <path id="Tracé_41514" data-name="Tracé 41514" d="M323.672,58.069V74.7h3.852l4.9-5.253-.657,5.253H348.8l-1.051-5.253,2.1,5.253h2.714V58.069Z" transform="translate(-245.481 -44.067)" fill="#2f2e41"/>
    <ellipse id="Ellipse_197" data-name="Ellipse 197" cx="1.313" cy="2.408" rx="1.313" ry="2.408" transform="translate(74.251 28.885)" fill="#ffb8b8"/>
    <ellipse id="Ellipse_198" data-name="Ellipse 198" cx="1.313" cy="2.408" rx="1.313" ry="2.408" transform="translate(107.958 28.885)" fill="#ffb8b8"/>
    <path id="Tracé_41515" data-name="Tracé 41515" d="M358.58,731.5v1.466a3.222,3.222,0,0,1-.22,1.176,3.3,3.3,0,0,1-.234.483,3.246,3.246,0,0,1-2.79,1.585H247.46a3.246,3.246,0,0,1-2.79-1.585,3.31,3.31,0,0,1-.234-.483,3.223,3.223,0,0,1-.22-1.177V731.5a3.244,3.244,0,0,1,3.243-3.244h6.22v-.684a.135.135,0,0,1,.135-.135h3.245a.135.135,0,0,1,.135.135v.684h2.027v-.684a.135.135,0,0,1,.135-.135H262.6a.135.135,0,0,1,.135.135v.684h2.029v-.684a.135.135,0,0,1,.135-.135h3.245a.135.135,0,0,1,.135.135v.684h2.027v-.684a.135.135,0,0,1,.135-.135h3.245a.135.135,0,0,1,.135.135v.684h2.027v-.684a.135.135,0,0,1,.135-.135h3.245a.135.135,0,0,1,.135.135v.684h2.029v-.684a.135.135,0,0,1,.135-.135h3.245a.135.135,0,0,1,.135.135v.684h2.027v-.684a.135.135,0,0,1,.135-.135h25.414a.135.135,0,0,1,.135.135v.684h2.029v-.684a.135.135,0,0,1,.135-.135h3.245a.137.137,0,0,1,.135.135v.684h2.027v-.684a.135.135,0,0,1,.135-.135h3.245a.135.135,0,0,1,.135.135v.684h2.027v-.684a.135.135,0,0,1,.135-.135h3.245a.135.135,0,0,1,.135.135v.684h2.029v-.684a.135.135,0,0,1,.135-.135h3.245a.135.135,0,0,1,.133.135v.684h2.029v-.684a.135.135,0,0,1,.135-.135H340.2a.135.135,0,0,1,.135.135v.684h2.027v-.684a.135.135,0,0,1,.135-.135h3.245a.135.135,0,0,1,.135.135v.684h9.462a3.244,3.244,0,0,1,3.244,3.243Z" transform="translate(-212.873 -584.539)" fill="#3f3d56"/>
    <rect id="Rectangle_17341" data-name="Rectangle 17341" width="372" height="0.47" transform="translate(-113.539 151.298)" fill="#3f3d56"/>
    <path id="Tracé_41516" data-name="Tracé 41516" d="M362.9,488.621H264.086a2.72,2.72,0,0,0-2.72,2.72V546.4a2.72,2.72,0,0,0,2.72,2.72H362.9a2.72,2.72,0,0,0,2.72-2.72V491.341A2.72,2.72,0,0,0,362.9,488.621Z" transform="translate(-225.881 -403.417)" fill="#3f3d56"/>
    <circle id="Ellipse_199" data-name="Ellipse 199" cx="6.039" cy="6.039" r="6.039" transform="translate(81.652 98.387)" fill="#f49f27"/>
    <path id="Tracé_41517" data-name="Tracé 41517" d="M516.685,169.228,547.173,138.5h14.394v-.483h-14.6l-.071.072-30.559,30.8Z" transform="translate(-391.606 -104.701)" fill="#3f3d56"/>
    <rect id="Rectangle_17342" data-name="Rectangle 17342" width="35.324" height="3.148" transform="translate(187.542 21.182)" fill="#f49f27"/>
    <path id="Tracé_41518" data-name="Tracé 41518" d="M849.5,221.393h-7.478v-7.478H849.5Zm-6.995-.483h6.512V214.4h-6.512Z" transform="translate(-666.267 -195.073)" fill="#3f3d56"/>
    <rect id="Rectangle_17343" data-name="Rectangle 17343" width="35.324" height="3.148" transform="translate(187.542 31.674)" fill="#f49f27"/>
    <path id="Tracé_41519" data-name="Tracé 41519" d="M849.5,264.826h-7.478v-7.478H849.5Zm-6.995-.483h6.512v-6.512h-6.512Z" transform="translate(-666.267 -228.014)" fill="#3f3d56"/>
    <rect id="Rectangle_17344" data-name="Rectangle 17344" width="35.324" height="3.148" transform="translate(187.542 42.167)" fill="#f49f27"/>
    <path id="Tracé_41520" data-name="Tracé 41520" d="M849.5,308.258h-7.478v-7.478H849.5Zm-6.995-.483h6.512v-6.512h-6.512Z" transform="translate(-666.267 -260.954)" fill="#3f3d56"/>
  </g>
  <g id="Groupe_37298" data-name="Groupe 37298" transform="translate(42.832)">
    <path id="Tracé_41521" data-name="Tracé 41521" d="M23.9,31.57a6.319,6.319,0,0,0-6.014,6.573v68.984A6.313,6.313,0,0,0,23.9,113.7H94.585a6.313,6.313,0,0,0,6.014-6.573V38.143a6.313,6.313,0,0,0-6.014-6.573Z" transform="translate(-6.198 -26.087)" fill="#efedef"/>
    <path id="Tracé_41522" data-name="Tracé 41522" d="M95.839,31.82a7.176,7.176,0,0,1,.122,1.32l-.068,34.446A41.148,41.148,0,0,1,54.8,108.651l-35.53.047a5.539,5.539,0,0,1-.682-.043,6.177,6.177,0,0,0,5.892,5.253H95.164a6.313,6.313,0,0,0,6.014-6.573V38.35A6.414,6.414,0,0,0,95.839,31.82Z" transform="translate(-6.776 -26.294)" fill="#e5e1e5"/>
    <path id="Tracé_41523" data-name="Tracé 41523" d="M100.592,38.143V52.311H17.89V38.143A6.313,6.313,0,0,1,23.9,31.57H94.585A6.312,6.312,0,0,1,100.592,38.143Z" transform="translate(-6.198 -26.087)" fill="#225ea8"/>
    <path id="Tracé_41524" data-name="Tracé 41524" d="M468.8,38.04V37.93a1.1,1.1,0,0,0-.014-.214,1.074,1.074,0,0,0-.014-.129c-.005-.043-.014-.127-.023-.189s-.014-.09-.021-.135-.017-.118-.028-.174-.019-.094-.028-.139-.023-.113-.036-.174-.021-.092-.033-.139-.028-.109-.042-.162l-.042-.141c-.014-.052-.031-.1-.047-.156l-.047-.141c-.017-.049-.035-.1-.054-.148s-.035-.094-.054-.141-.038-.094-.059-.141-.038-.094-.059-.141l-.063-.134c-.023-.047-.045-.094-.069-.139L468,35.074c-.024-.049-.05-.1-.076-.144l-.063-.1c-.03-.052-.059-.1-.09-.153l-.043-.066a6.281,6.281,0,0,0-.436-.6l-.023-.03c-.047-.057-.1-.113-.144-.174l-.045-.05c-.049-.054-.1-.1-.146-.155l-.052-.056-.149-.144-.057-.054-.155-.139-.059-.049c-.052-.045-.106-.09-.161-.132l-.057-.045-.174-.127-.054-.038-.174-.122-.05-.031c-.062-.04-.128-.08-.194-.116l-.038-.023c-.069-.04-.141-.078-.212-.115h-.021a5.582,5.582,0,0,0-1.839-.564,7.177,7.177,0,0,1,.122,1.32q-.033,9.685-.052,19.374h5.248V38.366C468.808,38.257,468.8,38.149,468.8,38.04Z" transform="translate(-374.413 -26.311)" fill="#225ea8"/>
    <path id="Tracé_41525" data-name="Tracé 41525" d="M261.742,261.4h-.03a3.268,3.268,0,0,1-3.242-3.3c.016-1.671.03-4.387.043-6.318H246.96a3.268,3.268,0,0,1-2.867-4.837c2.35-4.251,10.144-18.282,11.828-20.345a5.193,5.193,0,0,1,5.578-2.034,5.392,5.392,0,0,1,3.576,4.847c.089,1.058.066,8.714.026,15.843h1.53a3.267,3.267,0,1,1,0,6.531h-1.575c-.017,2.482-.035,5.347-.043,6.373A3.268,3.268,0,0,1,261.742,261.4Zm-9.223-16.142h6.038c.023-3.975.038-7.815.038-10.656C256.982,237.356,254.779,241.227,252.519,245.261Z" transform="translate(-192.786 -185.403)" fill="#225ea8"/>
    <path id="Tracé_41526" data-name="Tracé 41526" d="M262.724,228.534c.083.983.069,9.77.033,16.731a1.521,1.521,0,0,0,1.523,1.528h0a3.265,3.265,0,0,1,1.087.189c.033-6.353.04-14.906-.038-15.843a5.433,5.433,0,0,0-3.145-4.689A6.237,6.237,0,0,1,262.724,228.534Zm4.769,18.5a3.26,3.26,0,0,1-3.213,3.867h0a1.584,1.584,0,0,0-1.586,1.573c-.014,2.018-.026,3.986-.033,4.8a3.268,3.268,0,0,1-3.27,3.237h-.03a3.353,3.353,0,0,1-.58-.059,3.268,3.268,0,0,0,3.185,2.664H262a3.268,3.268,0,0,0,3.27-3.232c.009-1.026.026-3.892.043-6.373h1.575a3.265,3.265,0,0,0,.608-6.472Zm-8.643-10.712-.427-.427a2.338,2.338,0,0,0-3.689.505L250.74,243.5a2.336,2.336,0,0,0,2.035,3.484h0Zm-.076,17.16a2.561,2.561,0,0,0-2.562-2.577h-11.6a3.235,3.235,0,0,1-.61-.05,3.244,3.244,0,0,0,1.1,1.884,3.4,3.4,0,0,0,2.2.771h11.462Z" transform="translate(-193.04 -187.124)" fill="#225ea8"/>
    <path id="Tracé_41527" data-name="Tracé 41527" d="M133.487,258.986h-3.14V232.615a3.267,3.267,0,0,0-3.27-3.265h-6.349a3.265,3.265,0,1,0,0,6.53H123.8v23.106H120.66a3.27,3.27,0,0,0-3.27,3.272h0a3.27,3.27,0,0,0,3.27,3.27h12.827a3.27,3.27,0,0,0,3.27-3.27h0A3.27,3.27,0,0,0,133.487,258.986Z" transform="translate(-88.418 -189.52)" fill="#225ea8"/>
    <path id="Tracé_41528" data-name="Tracé 41528" d="M128.023,230.283v26.423a2.6,2.6,0,0,0,2.6,2.6h0V232.888a3.267,3.267,0,0,0-2.662-3.208A3.282,3.282,0,0,1,128.023,230.283Zm6.351,29.028a3.18,3.18,0,0,1,.059.608,3.27,3.27,0,0,1-3.27,3.27H118.338a3.18,3.18,0,0,1-.608-.059,3.27,3.27,0,0,0,3.213,2.664h12.825a3.27,3.27,0,0,0,.606-6.483Z" transform="translate(-88.699 -189.793)" fill="#225ea8"/>
    <path id="Tracé_41529" data-name="Tracé 41529" d="M32.244,68.156a4.574,4.574,0,1,0,0,9.148H45.069a4.574,4.574,0,1,0,0-9.148H43.228V43.095a4.574,4.574,0,0,0-4.573-4.567H32.31a4.567,4.567,0,0,0,0,9.135h1.773V68.154Zm3.142-23.1H32.31a1.962,1.962,0,0,1,0-3.925h6.346A1.968,1.968,0,0,1,40.623,43.1V69.466a1.3,1.3,0,0,0,1.3,1.3h3.143a1.969,1.969,0,0,1,0,3.937H32.244a1.969,1.969,0,1,1,0-3.937h3.142a1.3,1.3,0,0,0,1.3-1.3v-23.1a1.3,1.3,0,0,0-1.3-1.311Zm24.348,16.1h6.038a1.3,1.3,0,0,0,1.3-1.3c.026-4.376.038-8.063.038-10.663a1.3,1.3,0,0,0-2.431-.658c-1.563,2.652-3.722,6.445-6.092,10.677a1.3,1.3,0,0,0,1.138,1.94Zm4.772-7.085c0,1.374-.012,2.872-.021,4.479H61.966C62.854,56.962,63.708,55.458,64.505,54.077ZM54.183,67.692H64.429c0,.422,0,.858-.009,1.3-.009,1.348-.017,2.713-.026,3.706A4.573,4.573,0,0,0,68.91,77.3h.052a4.585,4.585,0,0,0,4.574-4.529c0-.521.01-1.492.019-2.654,0-.757.01-1.592.016-2.431h.28a4.569,4.569,0,1,0,0-9.137h-.219c.073-13.341-.009-14.32-.036-14.65a6.672,6.672,0,0,0-4.486-5.981,6.444,6.444,0,0,0-6.973,2.454c-1.7,2.084-8.932,15.058-11.958,20.537a4.569,4.569,0,0,0,3.994,6.773Zm-1.731-5.521c4.812-8.711,10.42-18.582,11.7-20.145a4.286,4.286,0,0,1,3.242-1.756,3.2,3.2,0,0,1,.943.142,4.089,4.089,0,0,1,2.659,3.709c.038.469.094,3.136.021,15.727a1.3,1.3,0,0,0,1.3,1.311h1.528a1.964,1.964,0,1,1,0,3.927H72.27a1.3,1.3,0,0,0-1.3,1.292c0,1.238-.017,2.572-.024,3.725s-.012,2.14-.012,2.647A1.971,1.971,0,0,1,68.963,74.7V76l-.017-1.3a1.966,1.966,0,0,1-1.952-1.98c0-1,.017-2.362.026-3.713,0-.917.012-1.825.017-2.6a1.3,1.3,0,0,0-1.3-1.311H54.174a1.964,1.964,0,0,1-1.723-2.918Zm35.929-58H84.722V1.3a1.3,1.3,0,1,0-2.6,0V4.18H72.622V1.3a1.3,1.3,0,1,0-2.6,0V4.18H60.523V1.3a1.3,1.3,0,1,0-2.6,0V4.18H48.424V1.3a1.3,1.3,0,1,0-2.6,0V4.18H36.327V1.3a1.3,1.3,0,1,0-2.6,0V4.18H24.228V1.3a1.3,1.3,0,1,0-2.6,0V4.18H17.706a7.621,7.621,0,0,0-7.316,7.876V81.04a7.621,7.621,0,0,0,7.316,7.876H88.388A7.62,7.62,0,0,0,95.7,81.04V12.056C95.7,7.714,92.415,4.18,88.381,4.18Zm4.712,76.86A5.021,5.021,0,0,1,88.381,86.3H17.7a5.016,5.016,0,0,1-4.711-5.271V27.522h80.1Zm0-56.123h-80.1V12.056a5.021,5.021,0,0,1,4.712-5.271h3.916V9.664a1.3,1.3,0,1,0,2.6,0V6.785h9.494V9.664a1.3,1.3,0,1,0,2.6,0V6.785h9.492V9.664a1.3,1.3,0,0,0,2.6,0V6.785h9.494V9.664a1.3,1.3,0,0,0,2.6,0V6.785h9.494V9.664a1.3,1.3,0,1,0,2.6,0V6.785h9.494V9.664a1.3,1.3,0,1,0,2.6,0V6.785h3.659a5.016,5.016,0,0,1,4.712,5.271Z" transform="translate(0 0)"/>
  </g>
  <g id="Groupe_37299" data-name="Groupe 37299" transform="translate(31.879 31.969)">
    <circle id="Ellipse_200" data-name="Ellipse 200" cx="13.5" cy="13.5" r="13.5" transform="translate(2.5 2.5)" fill="#fff"/>
    <path id="Tracé_41530" data-name="Tracé 41530" d="M24.839,25.339a.5.5,0,0,1-.354-.146l-1.414-1.414a.5.5,0,1,1,.707-.707l1.414,1.414a.5.5,0,0,1-.354.854Z" fill="#3c3b41"/>
    <circle id="Ellipse_201" data-name="Ellipse 201" cx="1.5" cy="1.5" r="1.5" transform="translate(14.5 14.5)" fill="#e5303e"/>
    <path id="Tracé_41531" data-name="Tracé 41531" d="M16,.5A15.5,15.5,0,1,0,31.5,16,15.5,15.5,0,0,0,16,.5Zm0,28A12.5,12.5,0,1,1,28.5,16,12.5,12.5,0,0,1,16,28.5Z" fill="#f49f27"/>
    <circle id="Ellipse_202" data-name="Ellipse 202" cx="7" cy="7" r="7" transform="translate(17.5 17.5)" fill="#37b678"/>
    <path id="Tracé_41532" data-name="Tracé 41532" d="M32,16A16,16,0,1,0,16,32a15.7,15.7,0,0,0,5.074-.836,7.488,7.488,0,0,0,10.09-10.09A15.7,15.7,0,0,0,32,16ZM24.5,31A6.5,6.5,0,1,1,31,24.5,6.5,6.5,0,0,1,24.5,31Zm-6.7-3.146a12.386,12.386,0,0,1-1.3.121V26.5a.5.5,0,0,0-1,0v1.476a11.888,11.888,0,0,1-7.616-3.153l1.044-1.044a.5.5,0,1,0-.707-.707L7.177,24.116A11.888,11.888,0,0,1,4.024,16.5H5.5a.5.5,0,0,0,0-1H4.024A11.888,11.888,0,0,1,7.177,7.884L8.222,8.929a.5.5,0,1,0,.707-.707L7.884,7.177A11.888,11.888,0,0,1,15.5,4.024V5.5a.5.5,0,0,0,1,0V4.024a11.888,11.888,0,0,1,7.616,3.153L23.071,8.222a.5.5,0,1,0,.707.707l1.044-1.044A11.888,11.888,0,0,1,27.976,15.5H26.5a.5.5,0,0,0,0,1h1.475a12.386,12.386,0,0,1-.121,1.3A7.485,7.485,0,0,0,17.8,27.854Zm12.658-7.889A7.552,7.552,0,0,0,28.78,18.35,13.393,13.393,0,0,0,29,16,13,13,0,1,0,16,29a13.393,13.393,0,0,0,2.35-.22,7.552,7.552,0,0,0,1.615,1.679A14.8,14.8,0,0,1,16,31,15,15,0,1,1,31,16a14.8,14.8,0,0,1-.541,3.967ZM21,16a.5.5,0,0,0-.5-.5H17.408a1.5,1.5,0,0,0-.908-.908V8.5a.5.5,0,0,0-1,0v6.092A1.5,1.5,0,1,0,17.408,16.5H20.5A.5.5,0,0,0,21,16Zm-5,.5a.5.5,0,1,1,.5-.5A.5.5,0,0,1,16,16.5Zm7,7.173V24H21.5a.5.5,0,0,0-.5.5v2a.5.5,0,0,0,.5.5h2a.5.5,0,0,0,0-1H22V25h1.5a.5.5,0,0,0,.5-.5v-2a.5.5,0,0,0-.5-.5h-2a.5.5,0,0,0,0,1H23ZM27.5,23a.5.5,0,0,0-.5.5V24H26V22.5a.5.5,0,0,0-1,0v2a.5.5,0,0,0,.5.5H27v1.5a.5.5,0,0,0,1,0v-3a.5.5,0,0,0-.5-.5Z"/>
  </g>
  <path id="Tracé_41470" data-name="Tracé 41470" d="M282.934,655.379a1.747,1.747,0,0,1-1.237-3.04l.124-.475a4.694,4.694,0,0,0-8.7-.165c-2.117,4.827-4.845,9.819-3.563,15.171-8.626-18.742-5.411-41.923,7.751-57.755a14.321,14.321,0,0,0,7.361-9.518c-1.786.586-3.991-.883-2.635-2.745.587-.711,1.179-1.416,1.766-2.127-6.692-7.265-14.856,3.975-7.506,13.764a56.023,56.023,0,0,0-6.385,9.781,23.555,23.555,0,0,0-1.3-10.954c-1.315-3.26-3.812-6.018-6.007-8.847a4.835,4.835,0,0,0-8.648,2.416c2.485.843,2.775,4.447-.082,4.913a24.115,24.115,0,0,0,13.106,19.162,56.24,56.24,0,0,0-3.3,23.477c-1.194-9.321-11.164-11.675-18.113-15.441a2.721,2.721,0,0,0-4.175,2.716,15.716,15.716,0,0,1,2.74,1.479,2.375,2.375,0,0,1-1.145,4.325,23.978,23.978,0,0,0,21.831,14.74,57.82,57.82,0,0,0,3.776,11.375l13.874.132c.051-.154.1-.312.144-.466a15.759,15.759,0,0,1-3.837-.265c3.436-3.99,6.083-6.018,4.159-11.652Z" transform="translate(-241.356 -492.403)" fill="#f2f2f2"/>
</svg>
